<?xml version="1.0" encoding="UTF-8" standalone="no"?>
<svg
   version="1.0"
   width="220.000000pt"
   height="220.000000pt"
   viewBox="0 0 220.000000 220.000000"
   preserveAspectRatio="xMidYMid meet"
   id="svg21"
   sodipodi:docname="logo-220x220.svg"
   inkscape:version="1.4 (e7c3feb1, 2024-10-09)"
   xmlns:inkscape="http://www.inkscape.org/namespaces/inkscape"
   xmlns:sodipodi="http://sodipodi.sourceforge.net/DTD/sodipodi-0.dtd"
   xmlns="http://www.w3.org/2000/svg"
   xmlns:svg="http://www.w3.org/2000/svg">
  <defs
     id="defs21">
    <rect
       x="50.769231"
       y="83.910257"
       width="11.282051"
       height="14.102564"
       id="rect24" />
    <rect
       x="50.064103"
       y="86.025641"
       width="11.98718"
       height="26.089744"
       id="rect23" />
    <rect
       x="43.012821"
       y="65.576923"
       width="41.602564"
       height="35.961539"
       id="rect21" />
  </defs>
  <sodipodi:namedview
     id="namedview21"
     pagecolor="#ffffff"
     bordercolor="#000000"
     borderopacity="0.25"
     inkscape:showpageshadow="2"
     inkscape:pageopacity="0.0"
     inkscape:pagecheckerboard="0"
     inkscape:deskcolor="#d1d1d1"
     inkscape:document-units="pt"
     inkscape:zoom="1.4181818"
     inkscape:cx="146.66667"
     inkscape:cy="171.69872"
     inkscape:window-width="1152"
     inkscape:window-height="716"
     inkscape:window-x="1920"
     inkscape:window-y="29"
     inkscape:window-maximized="0"
     inkscape:current-layer="g21" />
  <g
     transform="translate(0.000000,220.000000) scale(0.100000,-0.100000)"
     fill="#000000"
     stroke="none"
     id="g21">
    <path
       d="M946 2170 c-176 -28 -374 -114 -511 -223 -288 -228 -443 -590 -406 -948 48 -459 363 -827 806 -946 89 -23 119 -26 265 -26 147 -1 176 2 262 25 250 68 457 206 609 407 67 90 143 246 176 366 25 92 28 114 28 275 0 160 -3 183 -28 274 -57 205 -151 361 -308 509 -149 141 -316 230 -511 273 -87 19 -299 27 -382 14z m395 -89 c310 -80 546 -276 679 -565 68 -148 85 -228 84 -416 0 -140 -3 -178 -23 -250 -46 -173 -132 -322 -260 -454 -343 -354 -880 -405 -1296 -123 -79 54 -202 177 -255 256 -167 249 -218 555 -139 843 85 310 345 583 656 687 162 55 393 64 554 22z"
       id="path1" />
    <path
       d="M1237 1633 c23 -88 -16 -125 -153 -144 -145 -20 -274 -86 -361 -183 -45 -51 -54 -56 -71 -47 -12 6 -38 11 -59 11 -113 0 -176 -133 -112 -238 20 -35 73 -72 101 -72 13 0 23 -19 38 -70 67 -224 320 -363 575 -317 157 29 271 93 361 204 65 79 88 148 90 271 2 93 4 105 23 119 49 34 68 141 36 203 -37 72 -141 99 -204 52 l-31 -23 -75 37 c-70 35 -74 38 -68 65 3 16 3 39 -1 53 -7 29 -50 82 -77 97 -18 9 -19 7 -12 -18z m86 -269 c44 -22 85 -71 99 -117 9 -30 9 -52 -1 -99 -13 -64 -12 -68 41 -98 46 -27 65 -111 43 -186 -40 -139 -214 -238 -415 -238 -170 1 -290 83 -315 215 -5 27 0 46 24 92 l30 58 -29 46 c-37 58 -45 98 -31 151 30 108 146 167 244 124 24 -11 48 -25 51 -31 5 -8 25 4 58 34 71 64 139 80 201 49z m293 -27 c35 -30 37 -79 5 -110 l-23 -22 6 30 c3 17 3 35 -2 41 -13 20 -47 32 -75 27 -22 -4 -27 -2 -27 15 0 45 73 56 116 19z m-958 -159 c21 -21 13 -38 -18 -38 -39 0 -67 -38 -50 -70 18 -34 7 -43 -23 -20 -36 29 -37 81 -2 115 26 27 73 33 93 13z"
       id="path8" />
    <path
       d="M1252 1188 c-20 -20 -15 -85 8 -108 24 -24 30 -24 54 -7 11 8 18 27 19 50 2 58 -48 98 -81 65z m68 -48 c0 -10 -5 -22 -10 -25 -13 -8 -24 20 -16 41 8 20 26 9 26 -16z"
       id="path9" />
    <path
       d="M916 1134 c-22 -22 -20 -66 5 -98 36 -46 79 -29 79 31 0 23 -8 42 -25 58 -28 29 -38 31 -59 9z m74 -50 c0 -8 -9 -14 -20 -14 -19 0 -28 28 -13 43 9 9 33 -12 33 -29z"
       id="path10" />
    <path
       d="M1171 980 c-16 -9 -6 -30 15 -30 15 0 20 25 6 34 -4 2 -14 1 -21 -4z"
       id="path11" />
    <path
       d="M1110 955 c0 -8 9 -15 20 -15 11 0 20 7 20 15 0 8 -9 15 -20 15 -11 0 -20 -7 -20 -15z"
       id="path12" />
    <path
       d="M1000 836 c0 -35 57 -92 105 -105 55 -15 91 -14 130 4 45 22 76 95 40 95 -8 0 -15 -9 -15 -19 0 -11 -12 -29 -26 -40 -55 -43 -167 -13 -198 53 -20 42 -36 47 -36 12z"
       id="path13" />
    <path
       d="M1657 699 c-29 -17 -19 -44 33 -88 43 -36 49 -45 40 -62 -15 -27 -25 -24 -82 21 -41 32 -54 38 -69 29 -10 -5 -19 -18 -19 -28 0 -22 79 -89 118 -101 34 -9 85 10 103 39 13 19 14 19 50 -10 l37 -29 20 28 21 28 -107 85 c-129 103 -123 100 -145 88z"
       id="path16" />
    <path
       d="M485 679 c-21 -12 -105 -99 -105 -110 0 -3 9 -14 20 -24 20 -18 22 -18 70 30 32 31 54 46 64 42 27 -11 18 -40 -29 -87 l-45 -46 23 -22 24 -22 51 51 c28 28 57 49 64 47 29 -10 19 -42 -28 -89 -47 -47 -47 -49 -29 -69 25 -28 36 -25 76 18 79 82 88 124 40 173 -16 16 -36 29 -43 29 -8 0 -22 16 -31 35 -23 49 -77 68 -122 44z"
       id="path17" />
    <path
       d="M1449 515 c-41 -22 -62 -76 -49 -123 14 -53 40 -74 98 -80 43 -4 53 -1 81 24 39 36 54 97 25 108 -13 5 -24 0 -36 -16 -55 -74 -71 -74 -34 1 31 60 32 77 7 91 -27 14 -61 12 -92 -5z m33 -82 c-15 -32 -17 -33 -20 -14 -5 31 4 51 23 51 13 0 12 -5 -3 -37z"
       id="path18" />
    <path
       d="M1173 503 c-18 -7 -16 -23 12 -143 14 -58 27 -115 30 -127 5 -23 27 -29 58 -17 12 4 13 12 5 41 -17 62 32 74 53 13 11 -29 29 -37 62 -24 21 8 1 80 -28 102 -19 14 -20 20 -11 44 8 23 7 31 -7 45 -23 23 -48 8 -59 -35 -13 -51 -35 -39 -49 26 -17 77 -28 91 -66 75z"
       id="path19" />
    <path
       d="M790 473 c-62 -20 -90 -57 -90 -116 0 -72 76 -121 144 -93 94 39 97 154 4 202 -28 15 -34 15 -58 7z m44 -79 c18 -18 18 -17 10 -38 -10 -26 -43 -40 -60 -25 -19 16 -18 56 4 68 23 14 28 14 46 -5z"
       id="path20" />
    <path
       d="M997 409 c-30 -18 -47 -65 -47 -134 l0 -65 29 0 c32 0 41 17 41 86 0 50 21 74 46 53 13 -11 15 -27 12 -81 l-5 -68 32 0 c30 0 33 3 39 38 13 83 8 122 -23 153 -23 22 -39 29 -68 29 -21 0 -46 -5 -56 -11z"
       id="path21" />
    <text
       xml:space="preserve"
       transform="matrix(7.5,0,0,-7.5,0,2200)"
       id="text21"
       style="fill:#000000;text-orientation:auto;text-align:start;writing-mode:lr-tb;direction:ltr;white-space:pre;shape-inside:url(#rect21)" />
    <text
       xml:space="preserve"
       transform="matrix(7.5,0,0,-7.5,0,2200)"
       id="text23"
       style="fill:#000000;text-orientation:auto;text-align:start;writing-mode:lr-tb;direction:ltr;white-space:pre;shape-inside:url(#rect23)" />
    <text
       xml:space="preserve"
       transform="matrix(7.5,0,0,-7.5,0,2200)"
       id="text24"
       style="fill:#000000;text-orientation:auto;text-align:start;writing-mode:lr-tb;direction:ltr;white-space:pre;shape-inside:url(#rect24)" />
    <text
       xml:space="preserve"
       style="font-size:90px;text-align:start;writing-mode:lr-tb;direction:ltr;text-anchor:start;fill:#000000;stroke-width:7.5"
       x="364.90384"
       y="-1538.9423"
       id="text32"
       transform="scale(1,-1)"><tspan
         sodipodi:role="line"
         id="tspan32"
         style="stroke-width:7.5"
         x="364.90384"
         y="-1538.9423" /></text>
    <text
       xml:space="preserve"
       style="font-size:83.9541px;text-align:start;writing-mode:lr-tb;direction:ltr;text-anchor:start;fill:#000000;stroke-width:6.99618"
       x="477.22101"
       y="-1602.1388"
       id="text33"
       transform="scale(0.95556481,-1.0465015)"><tspan
         sodipodi:role="line"
         id="tspan33"
         style="font-style:normal;font-variant:normal;font-weight:900;font-stretch:normal;font-size:262.5px;font-family:'Arial Black';-inkscape-font-specification:'Arial Black, Heavy';font-variant-ligatures:normal;font-variant-caps:normal;font-variant-numeric:normal;font-variant-east-asian:normal;stroke-width:6.99618"
         x="477.22101"
         y="-1602.1388">SHUFFLE</tspan></text>
  </g>
</svg>
